Description

Poster: http://cdn.piczend.com/image/xw6xxdfjmbit3se1n8f0hlax3.jpeg
Release date: 2012
Genre: Horror
Plot: Beth (Vinessa Shaw) and Francis (Ebon Moss-Bachrach), a young married couple, are on holiday together when they venture to a beautiful...
--------------------------------

Runtime: N/A
Rating: 5.0/10
Votes: 86
Writer(s)/Director(s): Juan José Plans, Makinov/Makinov
Actors: Daniel Giménez Cacho, Ebon Moss-Bachrach, Vinessa Shaw
Trailer: http://www.imdb.com/video/imdb/vi4100564761/

Screenshots:
 
http://cdn.piczend.com/image/ahm0gilvpr7lwl4qq8fxacawj.jpeg
 
http://cdn.piczend.com/image/1d6qcarjmhpvibbz9mmkgs1fy.jpeg
 
http://cdn.piczend.com/image/pfaf2a7v6ny6vxj2d4bf51eie.jpeg
 
http://cdn.piczend.com/image/powgulwzm1smznjdbgyzpr3ks.jpeg


Mediainfo:
General
Complete name : 	Come Out and Play (2012) DVDRip 272p [Zend]/Come Out and Play (2012) DVDRip 272p [Zend].mp4
Format : 	MPEG-4
Format profile : 	Base Media
Codec ID : 	isom
File size : 	1.02 GiB
Duration : 	1h 26mn
Overall bit rate : 	1 684 Kbps
Writing application : 	Lavf53.21.1

Video
ID : 	1
Format : 	AVC
Format/Info : 	Advanced Video Codec
Format profile : 	Main@L2.1
Format settings, CABAC : 	Yes
Format settings, ReFrames : 	3 frames
Codec ID : 	avc1
Codec ID/Info : 	Advanced Video Coding
Duration : 	1h 26mn
Bit rate : 	1 500 Kbps
Width : 	640 pixels
Height : 	272 pixels
Display aspect ratio : 	2.35:1
Frame rate mode : 	Constant
Frame rate : 	24.000 fps
Color space : 	YUV
Chroma subsampling : 	4:2:0
Bit depth : 	8 bits
Scan type : 	Progressive
Bits/(Pixel*Frame) : 	0.359
Stream size : 	922 MiB (88%)
Writing library : 	x264 core 123 r2189 35cf912
Encoding settings : 	cabac=1 / ref=3 / deblock=1:0:0 / analyse=0x1:0x111 / me=hex / subme=7 / psy=1 / psy_rd=1.00:0.00 / mixed_ref=0 / me_range=16 / chroma_me=1 / trellis=1 / 8x8dct=0 / cqm=0 / deadzone=21,11 / fast_pskip=1 / chroma_qp_offset=-2 / threads=6 / sliced_threads=0 / nr=0 / decimate=1 / interlaced=0 / bluray_compat=0 / constrained_intra=0 / bframes=3 / b_pyramid=0 / b_adapt=1 / b_bias=0 / direct=1 / weightb=0 / open_gop=1 / weightp=2 / keyint=250 / keyint_min=24 / scenecut=40 / intra_refresh=0 / rc_lookahead=40 / rc=abr / mbtree=1 / bitrate=1500 / ratetol=1.0 / qcomp=0.60 / qpmin=0 / qpmax=69 / qpstep=4 / ip_ratio=1.25 / aq=1:1.00

Audio
ID : 	2
Format : 	AC-3
Format/Info : 	Audio Coding 3
Mode extension : 	CM (complete main)
Format settings, Endianness : 	Big
Codec ID : 	ac-3
Duration : 	1h 26mn
Bit rate mode : 	Constant
Bit rate : 	192 Kbps
Channel(s) : 	2 channels
Channel positions : 	Front: L R
Sampling rate : 	44.1 KHz
Bit depth : 	16 bits
Compression mode : 	Lossy
Delay relative to video : 	42ms
Stream size : 	119 MiB (11%)
